<svg xmlns="http://www.w3.org/2000/svg" width="16" height="16" fill="currentColor" class="d-none">
    <symbol id="door-closed" viewBox="0 0 16 16">
        <path d="M3 2a1 1 0 0 1 1-1h8a1 1 0 0 1 1 1v13h1.5a.5.5 0 0 1 0 1h-13a.5.5 0 0 1 0-1H3V2zm1 13h8V2H4v13z"/>
        <path d="M9 9a1 1 0 1 0 2 0 1 1 0 0 0-2 0z"/>
    </symbol>
    <symbol id="door-open" viewBox="0 0 16 16">
        <path d="M8.5 10c-.276 0-.5-.448-.5-1s.224-1 .5-1 .5.448.5 1-.224 1-.5 1z"/>
        <path d="M10.828.122A.5.5 0 0 1 11 .5V1h.5A1.5 1.5 0 0 1 13 2.5V15h1.5a.5.5 0 0 1 0 1h-13a.5.5 0 0 1 0-1H3V1.5a.5.5 0 0 1 .43-.495l7-1a.5.5 0 0 1 .398.117zM11.5 2H11v13h1V2.5a.5.5 0 0 0-.5-.5zM4 1.934V15h6V1.077l-6 .857z"/>
    </symbol>
    <symbol id="person-plus" viewBox="0 0 16 16">
        <path d="M6 8a3 3 0 1 0 0-6 3 3 0 0 0 0 6zm2-3a2 2 0 1 1-4 0 2 2 0 0 1 4 0zm4 8c0 1-1 1-1 1H1s-1 0-1-1 1-4 6-4 6 3 6 4zm-1-.004c-.001-.246-.154-.986-.832-1.664C9.516 10.68 8.289 10 6 10c-2.29 0-3.516.68-4.168 1.332-.678.678-.83 1.418-.832 1.664h10z"/>
        <path fill-rule="evenodd"
              d="M13.5 5a.5.5 0 0 1 .5.5V7h1.5a.5.5 0 0 1 0 1H14v1.5a.5.5 0 0 1-1 0V8h-1.5a.5.5 0 0 1 0-1H13V5.5a.5.5 0 0 1 .5-.5z"/>
    </symbol>
</svg>